RedHatText-Bold.ufo
<glyph name="dollar" format="2">
  <advance width="594"/>
  <unicode hex="0024"/>
  <outline>
    <contour>
      <point x="255" y="-75" type="line"/>
      <point x="324" y="-75" type="line"/>
      <point x="324" y="20" type="line"/>
      <point x="469" y="31"/>
      <point x="554" y="108"/>
      <point x="554" y="230" type="curve"/>
      <point x="554" y="317"/>
      <point x="503" y="373"/>
      <point x="400" y="398" type="curve" smooth="yes"/>
      <point x="324" y="416" type="line"/>
      <point x="324" y="547" type="line"/>
      <point x="375" y="539"/>
      <point x="426" y="519"/>
      <point x="475" y="489" type="curve"/>
      <point x="537" y="609" type="line"/>
      <point x="477" y="649"/>
      <point x="401" y="674"/>
      <point x="324" y="681" type="curve"/>
      <point x="324" y="759" type="line"/>
      <point x="255" y="759" type="line"/>
      <point x="255" y="682" type="line"/>
      <point x="113" y="674"/>
      <point x="31" y="600"/>
      <point x="31" y="478" type="curve"/>
      <point x="31" y="386"/>
      <point x="81" y="327"/>
      <point x="178" y="303" type="curve" smooth="yes"/>
      <point x="255" y="284" type="line"/>
      <point x="255" y="154" type="line"/>
      <point x="199" y="161"/>
      <point x="142" y="182"/>
      <point x="89" y="214" type="curve"/>
      <point x="21" y="93" type="line"/>
      <point x="88" y="50"/>
      <point x="172" y="25"/>
      <point x="255" y="20" type="curve"/>
    </contour>
    <contour>
      <point x="242" y="432" type="line" smooth="yes"/>
      <point x="191" y="444"/>
      <point x="174" y="459"/>
      <point x="174" y="490" type="curve"/>
      <point x="174" y="524"/>
      <point x="205" y="547"/>
      <point x="255" y="550" type="curve"/>
      <point x="255" y="429" type="line"/>
    </contour>
    <contour>
      <point x="336" y="269" type="line" smooth="yes"/>
      <point x="391" y="253"/>
      <point x="406" y="241"/>
      <point x="406" y="211" type="curve"/>
      <point x="406" y="178"/>
      <point x="377" y="157"/>
      <point x="324" y="152" type="curve"/>
      <point x="324" y="272" type="line"/>
    </contour>
  </outline>
</glyph>
<glyph name="ampersand" format="2">
  <advance width="696"/>
  <unicode hex="0026"/>
  <outline>
    <contour>
      <point x="664" y="91" type="line"/>
      <point x="636" y="112"/>
      <point x="605" y="135"/>
      <point x="574" y="161" type="curve"/>
      <point x="610" y="216"/>
      <point x="637" y="287"/>
      <point x="658" y="375" type="curve"/>
      <point x="520" y="398" type="line"/>
      <point x="508" y="341"/>
      <point x="491" y="292"/>
      <point x="470" y="252" type="curve"/>
      <point x="430" y="288"/>
      <point x="392" y="325"/>
      <point x="359" y="359" type="curve"/>
      <point x="410" y="391" type="line" smooth="yes"/>
      <point x="473" y="429"/>
      <point x="504" y="479"/>
      <point x="504" y="539" type="curve" smooth="yes"/>
      <point x="504" y="638"/>
      <point x="418" y="712"/>
      <point x="302" y="712" type="curve" smooth="yes"/>
      <point x="183" y="712"/>
      <point x="96" y="635"/>
      <point x="96" y="531" type="curve" smooth="yes"/>
      <point x="96" y="476"/>
      <point x="111" y="433"/>
      <point x="152" y="380" type="curve"/>
      <point x="58" y="326"/>
      <point x="24" y="276"/>
      <point x="24" y="190" type="curve"/>
      <point x="24" y="71"/>
      <point x="126" y="-10"/>
      <point x="277" y="-10" type="curve" smooth="yes"/>
      <point x="353" y="-10"/>
      <point x="421" y="10"/>
      <point x="477" y="48" type="curve"/>
      <point x="507" y="23"/>
      <point x="538" y="-1"/>
      <point x="568" y="-23" type="curve"/>
    </contour>
    <contour>
      <point x="240" y="534" type="curve" smooth="yes"/>
      <point x="240" y="569"/>
      <point x="264" y="594"/>
      <point x="298" y="594" type="curve" smooth="yes"/>
      <point x="332" y="594"/>
      <point x="359" y="568"/>
      <point x="359" y="534" type="curve" smooth="yes"/>
      <point x="359" y="508"/>
      <point x="347" y="490"/>
      <point x="317" y="471" type="curve" smooth="yes"/>
      <point x="282" y="450" type="line"/>
      <point x="250" y="488"/>
      <point x="240" y="510"/>
    </contour>
    <contour>
      <point x="173" y="203" type="curve"/>
      <point x="173" y="236"/>
      <point x="188" y="260"/>
      <point x="229" y="285" type="curve"/>
      <point x="273" y="235"/>
      <point x="323" y="185"/>
      <point x="375" y="137" type="curve"/>
      <point x="349" y="122"/>
      <point x="321" y="116"/>
      <point x="289" y="116" type="curve" smooth="yes"/>
      <point x="217" y="116"/>
      <point x="173" y="149"/>
    </contour>
  </outline>
</glyph>
<glyph name="comma" format="2">
  <advance width="275"/>
  <unicode hex="002C"/>
  <outline>
    <contour>
      <point x="75" y="127" type="line"/>
      <point x="0" y="-177" type="line"/>
      <point x="116" y="-177" type="line"/>
      <point x="234" y="127" type="line"/>
    </contour>
  </outline>
</glyph>
<glyph name="period" format="2">
  <advance width="275"/>
  <unicode hex="002E"/>
  <outline>
    <contour>
      <point x="138" y="179" type="curve" smooth="yes"/>
      <point x="88" y="179"/>
      <point x="47" y="136"/>
      <point x="47" y="84" type="curve" smooth="yes"/>
      <point x="47" y="32"/>
      <point x="88" y="-11"/>
      <point x="138" y="-11" type="curve" smooth="yes"/>
      <point x="187" y="-11"/>
      <point x="228" y="32"/>
      <point x="228" y="84" type="curve" smooth="yes"/>
      <point x="228" y="136"/>
      <point x="187" y="179"/>
    </contour>
  </outline>
</glyph>
<glyph name="four" format="2">
  <advance width="690"/>
  <unicode hex="0034"/>
  <outline>
    <contour>
      <point x="569" y="700" type="line"/>
      <point x="389" y="700" type="line"/>
      <point x="41" y="284" type="line"/>
      <point x="41" y="157" type="line"/>
      <point x="415" y="157" type="line"/>
      <point x="415" y="0" type="line"/>
      <point x="569" y="0" type="line"/>
      <point x="569" y="157" type="line"/>
      <point x="652" y="157" type="line"/>
      <point x="652" y="288" type="line"/>
      <point x="569" y="288" type="line"/>
    </contour>
    <contour>
      <point x="201" y="288" type="line"/>
      <point x="415" y="546" type="line"/>
      <point x="415" y="288" type="line"/>
    </contour>
  </outline>
</glyph>
<glyph name="five" format="2">
  <advance width="616"/>
  <unicode hex="0035"/>
  <note>
Version created Sun Jan 27 17:40:50 2019
</note>
  <outline>
    <contour>
      <point x="62" y="324" type="line"/>
      <point x="170" y="292" type="line"/>
      <point x="210" y="314"/>
      <point x="248" y="325"/>
      <point x="287" y="325" type="curve" smooth="yes"/>
      <point x="361" y="325"/>
      <point x="416" y="282"/>
      <point x="416" y="223" type="curve" smooth="yes"/>
      <point x="416" y="162"/>
      <point x="367" y="122"/>
      <point x="294" y="122" type="curve" smooth="yes"/>
      <point x="232" y="122"/>
      <point x="181" y="142"/>
      <point x="122" y="190" type="curve"/>
      <point x="30" y="83" type="line"/>
      <point x="102" y="21"/>
      <point x="189" y="-11"/>
      <point x="286" y="-11" type="curve" smooth="yes"/>
      <point x="458" y="-11"/>
      <point x="574" y="86"/>
      <point x="574" y="231" type="curve" smooth="yes"/>
      <point x="574" y="359"/>
      <point x="480" y="444"/>
      <point x="338" y="444" type="curve" smooth="yes"/>
      <point x="289" y="444"/>
      <point x="243" y="433"/>
      <point x="201" y="412" type="curve"/>
      <point x="208" y="569" type="line"/>
      <point x="537" y="569" type="line"/>
      <point x="537" y="700" type="line"/>
      <point x="79" y="700" type="line"/>
    </contour>
  </outline>
</glyph>
<glyph name="six" format="2">
  <advance width="651"/>
  <unicode hex="0036"/>
  <outline>
    <contour>
      <point x="350" y="-11" type="curve"/>
      <point x="499" y="-11"/>
      <point x="609" y="88"/>
      <point x="609" y="221" type="curve" smooth="yes"/>
      <point x="609" y="345"/>
      <point x="512" y="433"/>
      <point x="374" y="433" type="curve"/>
      <point x="304" y="433"/>
      <point x="239" y="397"/>
      <point x="195" y="334" type="curve"/>
      <point x="195" y="488"/>
      <point x="256" y="574"/>
      <point x="370" y="574" type="curve"/>
      <point x="426" y="574"/>
      <point x="467" y="559"/>
      <point x="506" y="526" type="curve"/>
      <point x="595" y="636" type="line"/>
      <point x="546" y="682"/>
      <point x="460" y="712"/>
      <point x="382" y="712" type="curve"/>
      <point x="178" y="712"/>
      <point x="42" y="563"/>
      <point x="42" y="339" type="curve" smooth="yes"/>
      <point x="42" y="130"/>
      <point x="166" y="-11"/>
    </contour>
    <contour>
      <point x="348" y="313" type="curve"/>
      <point x="413" y="313"/>
      <point x="458" y="274"/>
      <point x="458" y="218" type="curve" smooth="yes"/>
      <point x="458" y="162"/>
      <point x="408" y="121"/>
      <point x="342" y="121" type="curve"/>
      <point x="275" y="121"/>
      <point x="224" y="172"/>
      <point x="204" y="252" type="curve"/>
      <point x="241" y="291"/>
      <point x="291" y="313"/>
    </contour>
  </outline>
</glyph>
<glyph name="eight" format="2">
  <advance width="638"/>
  <unicode hex="0038"/>
  <note>
Version created Tue Sep 18 15:49:42 2018
</note>
  <outline>
    <contour>
      <point x="319" y="-11" type="curve"/>
      <point x="481" y="-11"/>
      <point x="592" y="74"/>
      <point x="592" y="198" type="curve" smooth="yes"/>
      <point x="592" y="272"/>
      <point x="539" y="334"/>
      <point x="461" y="359" type="curve"/>
      <point x="527" y="386"/>
      <point x="572" y="442"/>
      <point x="572" y="508" type="curve" smooth="yes"/>
      <point x="572" y="624"/>
      <point x="463" y="711"/>
      <point x="318" y="711" type="curve"/>
      <point x="174" y="711"/>
      <point x="66" y="624"/>
      <point x="66" y="508" type="curve" smooth="yes"/>
      <point x="66" y="442"/>
      <point x="111" y="386"/>
      <point x="178" y="359" type="curve"/>
      <point x="100" y="334"/>
      <point x="46" y="272"/>
      <point x="46" y="198" type="curve" smooth="yes"/>
      <point x="46" y="74"/>
      <point x="157" y="-11"/>
    </contour>
    <contour>
      <point x="319" y="411" type="curve"/>
      <point x="262" y="411"/>
      <point x="218" y="448"/>
      <point x="218" y="497" type="curve"/>
      <point x="218" y="547"/>
      <point x="261" y="583"/>
      <point x="319" y="583" type="curve"/>
      <point x="377" y="583"/>
      <point x="420" y="547"/>
      <point x="420" y="497" type="curve"/>
      <point x="420" y="448"/>
      <point x="376" y="411"/>
    </contour>
    <contour>
      <point x="319" y="118" type="curve"/>
      <point x="250" y="118"/>
      <point x="202" y="156"/>
      <point x="202" y="209" type="curve"/>
      <point x="202" y="262"/>
      <point x="250" y="300"/>
      <point x="319" y="300" type="curve"/>
      <point x="388" y="300"/>
      <point x="436" y="262"/>
      <point x="436" y="209" type="curve"/>
      <point x="436" y="156"/>
      <point x="388" y="118"/>
    </contour>
  </outline>
</glyph>
<glyph name="at" format="2">
  <advance width="782"/>
  <unicode hex="0040"/>
  <outline>
    <contour>
      <point x="347" y="47" type="curve" smooth="yes"/>
      <point x="382" y="47"/>
      <point x="417" y="61"/>
      <point x="446" y="86" type="curve"/>
      <point x="465" y="60"/>
      <point x="500" y="46"/>
      <point x="547" y="46" type="curve" smooth="yes"/>
      <point x="655" y="46"/>
      <point x="731" y="142"/>
      <point x="731" y="279" type="curve" smooth="yes"/>
      <point x="731" y="450"/>
      <point x="590" y="583"/>
      <point x="408" y="583" type="curve"/>
      <point x="204" y="583"/>
      <point x="53" y="424"/>
      <point x="53" y="207" type="curve"/>
      <point x="53" y="4"/>
      <point x="202" y="-144"/>
      <point x="408" y="-144" type="curve"/>
      <point x="470" y="-144"/>
      <point x="527" y="-130"/>
      <point x="588" y="-101" type="curve"/>
      <point x="562" y="-39" type="line"/>
      <point x="516" y="-63"/>
      <point x="465" y="-74"/>
      <point x="407" y="-74" type="curve"/>
      <point x="240" y="-74"/>
      <point x="124" y="44"/>
      <point x="124" y="214" type="curve"/>
      <point x="124" y="387"/>
      <point x="246" y="519"/>
      <point x="405" y="519" type="curve"/>
      <point x="549" y="519"/>
      <point x="658" y="413"/>
      <point x="658" y="272" type="curve" smooth="yes"/>
      <point x="658" y="181"/>
      <point x="619" y="119"/>
      <point x="562" y="119" type="curve" smooth="yes"/>
      <point x="532" y="119"/>
      <point x="518" y="136"/>
      <point x="525" y="167" type="curve" smooth="yes"/>
      <point x="567" y="375" type="line"/>
      <point x="468" y="375" type="line"/>
      <point x="465" y="358" type="line"/>
      <point x="442" y="377"/>
      <point x="412" y="388"/>
      <point x="379" y="388" type="curve" smooth="yes"/>
      <point x="283" y="388"/>
      <point x="208" y="307"/>
      <point x="208" y="203" type="curve" smooth="yes"/>
      <point x="208" y="116"/>
      <point x="269" y="47"/>
    </contour>
    <contour>
      <point x="302" y="212" type="curve" smooth="yes"/>
      <point x="302" y="260"/>
      <point x="339" y="301"/>
      <point x="383" y="301" type="curve"/>
      <point x="411" y="301"/>
      <point x="433" y="290"/>
      <point x="448" y="269" type="curve"/>
      <point x="431" y="182" type="line" smooth="yes"/>
      <point x="429" y="172"/>
      <point x="428" y="163"/>
      <point x="428" y="153" type="curve"/>
      <point x="410" y="138"/>
      <point x="391" y="131"/>
      <point x="371" y="131" type="curve" smooth="yes"/>
      <point x="331" y="131"/>
      <point x="302" y="165"/>
    </contour>
  </outline>
</glyph>
<glyph name="C" format="2">
  <advance width="720"/>
  <unicode hex="0043"/>
  <anchor x="403" y="700" name="top"/>
  <anchor x="405" y="0" name="bottom"/>
  <outline>
    <contour>
      <point x="420" y="144" type="curve"/>
      <point x="308" y="144"/>
      <point x="223" y="232"/>
      <point x="223" y="350" type="curve" smooth="yes"/>
      <point x="223" y="469"/>
      <point x="305" y="558"/>
      <point x="414" y="558" type="curve" smooth="yes"/>
      <point x="480" y="558"/>
      <point x="536" y="527"/>
      <point x="582" y="465" type="curve"/>
      <point x="698" y="575" type="line"/>
      <point x="637" y="658"/>
      <point x="526" y="711"/>
      <point x="414" y="711" type="curve" smooth="yes"/>
      <point x="206" y="711"/>
      <point x="45" y="554"/>
      <point x="45" y="350" type="curve" smooth="yes"/>
      <point x="45" y="147"/>
      <point x="205" y="-10"/>
      <point x="414" y="-10" type="curve"/>
      <point x="522" y="-10"/>
      <point x="631" y="43"/>
      <point x="693" y="124" type="curve"/>
      <point x="580" y="231" type="line"/>
      <point x="536" y="173"/>
      <point x="483" y="144"/>
    </contour>
  </outline>
</glyph>
<glyph name="L" format="2">
  <advance width="648"/>
  <unicode hex="004C"/>
  <anchor x="163" y="700" name="top"/>
  <anchor x="360" y="0" name="bottom"/>
  <outline>
    <contour>
      <point x="78" y="0" type="line"/>
      <point x="597" y="0" type="line"/>
      <point x="597" y="147" type="line"/>
      <point x="250" y="147" type="line"/>
      <point x="250" y="700" type="line"/>
      <point x="78" y="700" type="line"/>
    </contour>
  </outline>
</glyph>
<glyph name="O" format="2">
  <advance width="813"/>
  <unicode hex="004F"/>
  <anchor x="407" y="700" name="top"/>
  <outline>
    <contour>
      <point x="768" y="350" type="curve"/>
      <point x="768" y="552"/>
      <point x="610" y="711"/>
      <point x="407" y="711" type="curve"/>
      <point x="204" y="711"/>
      <point x="45" y="552"/>
      <point x="45" y="350" type="curve"/>
      <point x="45" y="148"/>
      <point x="204" y="-11"/>
      <point x="407" y="-11" type="curve"/>
      <point x="610" y="-11"/>
      <point x="768" y="148"/>
    </contour>
    <contour>
      <point x="590" y="350" type="curve"/>
      <point x="590" y="231"/>
      <point x="511" y="142"/>
      <point x="406" y="142" type="curve"/>
      <point x="301" y="142"/>
      <point x="222" y="231"/>
      <point x="222" y="350" type="curve"/>
      <point x="222" y="469"/>
      <point x="301" y="558"/>
      <point x="406" y="558" type="curve"/>
      <point x="511" y="558"/>
      <point x="590" y="469"/>
    </contour>
  </outline>
</glyph>
<glyph name="Q" format="2">
  <advance width="813"/>
  <unicode hex="0051"/>
  <outline>
    <contour>
      <point x="768" y="350" type="curve"/>
      <point x="768" y="552"/>
      <point x="610" y="711"/>
      <point x="407" y="711" type="curve"/>
      <point x="204" y="711"/>
      <point x="45" y="552"/>
      <point x="45" y="350" type="curve"/>
      <point x="45" y="148"/>
      <point x="204" y="-11"/>
      <point x="407" y="-11" type="curve"/>
      <point x="457" y="-11"/>
      <point x="504" y="-1"/>
      <point x="546" y="16" type="curve"/>
      <point x="607" y="-57" type="line"/>
      <point x="730" y="27" type="line"/>
      <point x="669" y="100" type="line"/>
      <point x="731" y="164"/>
      <point x="768" y="252"/>
    </contour>
    <contour>
      <point x="502" y="301" type="line"/>
      <point x="379" y="217" type="line"/>
      <point x="439" y="145" type="line"/>
      <point x="428" y="143"/>
      <point x="417" y="142"/>
      <point x="406" y="142" type="curve"/>
      <point x="301" y="142"/>
      <point x="222" y="231"/>
      <point x="222" y="350" type="curve"/>
      <point x="222" y="469"/>
      <point x="301" y="558"/>
      <point x="406" y="558" type="curve"/>
      <point x="511" y="558"/>
      <point x="590" y="469"/>
      <point x="590" y="350" type="curve"/>
      <point x="590" y="305"/>
      <point x="579" y="265"/>
      <point x="559" y="232" type="curve"/>
    </contour>
  </outline>
</glyph>
<glyph name="S" format="2">
  <advance width="655"/>
  <unicode hex="0053"/>
  <note>
Version created Fri Aug  3 17:49:29 2018
</note>
  <anchor x="309" y="700" name="top"/>
  <anchor x="319" y="0" name="bottom"/>
  <outline>
    <contour>
      <point x="19" y="96" type="line"/>
      <point x="112" y="27"/>
      <point x="211" y="-10"/>
      <point x="322" y="-10" type="curve" smooth="yes"/>
      <point x="505" y="-10"/>
      <point x="621" y="83"/>
      <point x="621" y="219" type="curve"/>
      <point x="621" y="326"/>
      <point x="552" y="394"/>
      <point x="421" y="417" type="curve" smooth="yes"/>
      <point x="281" y="441" type="line" smooth="yes"/>
      <point x="225" y="450"/>
      <point x="202" y="469"/>
      <point x="202" y="504" type="curve"/>
      <point x="202" y="542"/>
      <point x="241" y="570"/>
      <point x="309" y="570" type="curve"/>
      <point x="383" y="570"/>
      <point x="450" y="545"/>
      <point x="518" y="493" type="curve"/>
      <point x="605" y="618" type="line"/>
      <point x="533" y="675"/>
      <point x="426" y="710"/>
      <point x="318" y="710" type="curve" smooth="yes"/>
      <point x="144" y="710"/>
      <point x="40" y="625"/>
      <point x="40" y="489" type="curve"/>
      <point x="40" y="391"/>
      <point x="101" y="323"/>
      <point x="212" y="302" type="curve" smooth="yes"/>
      <point x="361" y="276" type="line" smooth="yes"/>
      <point x="429" y="263"/>
      <point x="453" y="244"/>
      <point x="453" y="203" type="curve"/>
      <point x="453" y="160"/>
      <point x="408" y="130"/>
      <point x="334" y="130" type="curve"/>
      <point x="265" y="130"/>
      <point x="204" y="155"/>
      <point x="107" y="223" type="curve"/>
    </contour>
  </outline>
</glyph>
<glyph name="T" format="2">
  <advance width="665"/>
  <unicode hex="0054"/>
  <anchor x="333" y="700" name="top"/>
  <anchor x="333" y="0" name="bottom"/>
  <outline>
    <contour>
      <point x="21" y="553" type="line"/>
      <point x="247" y="553" type="line"/>
      <point x="247" y="0" type="line"/>
      <point x="419" y="0" type="line"/>
      <point x="419" y="553" type="line"/>
      <point x="644" y="553" type="line"/>
      <point x="644" y="700" type="line"/>
      <point x="21" y="700" type="line"/>
    </contour>
  </outline>
</glyph>
<glyph name="X" format="2">
  <advance width="756"/>
  <unicode hex="0058"/>
  <outline>
    <contour>
      <point x="207" y="0" type="line"/>
      <point x="374" y="236" type="line"/>
      <point x="540" y="0" type="line"/>
      <point x="745" y="0" type="line"/>
      <point x="474" y="361" type="line"/>
      <point x="724" y="700" type="line"/>
      <point x="527" y="700" type="line"/>
      <point x="377" y="488" type="line"/>
      <point x="227" y="700" type="line"/>
      <point x="22" y="700" type="line"/>
      <point x="277" y="361" type="line"/>
      <point x="10" y="0" type="line"/>
    </contour>
  </outline>
</glyph>
<glyph name="asciicircum" format="2">
  <advance width="562"/>
  <unicode hex="005E"/>
  <outline>
    <contour>
      <point x="41" y="350" type="line"/>
      <point x="166" y="350" type="line"/>
      <point x="281" y="584" type="line"/>
      <point x="396" y="350" type="line"/>
      <point x="521" y="350" type="line"/>
      <point x="347" y="700" type="line"/>
      <point x="215" y="700" type="line"/>
    </contour>
  </outline>
</glyph>
<glyph name="c" format="2">
  <advance width="539"/>
  <unicode hex="0063"/>
  <anchor x="301" y="516" name="top"/>
  <anchor x="306" y="0" name="bottom"/>
  <outline>
    <contour>
      <point x="317" y="130" type="curve" smooth="yes"/>
      <point x="250" y="130"/>
      <point x="201" y="184"/>
      <point x="201" y="257" type="curve" smooth="yes"/>
      <point x="201" y="331"/>
      <point x="249" y="386"/>
      <point x="313" y="386" type="curve" smooth="yes"/>
      <point x="357" y="386"/>
      <point x="390" y="369"/>
      <point x="423" y="330" type="curve"/>
      <point x="522" y="429" type="line"/>
      <point x="470" y="490"/>
      <point x="392" y="524"/>
      <point x="307" y="524" type="curve"/>
      <point x="156" y="524"/>
      <point x="40" y="408"/>
      <point x="40" y="257" type="curve" smooth="yes"/>
      <point x="40" y="106"/>
      <point x="156" y="-10"/>
      <point x="307" y="-10" type="curve" smooth="yes"/>
      <point x="390" y="-10"/>
      <point x="468" y="26"/>
      <point x="517" y="86" type="curve"/>
      <point x="421" y="181" type="line"/>
      <point x="395" y="147"/>
      <point x="360" y="130"/>
    </contour>
  </outline>
</glyph>
<glyph name="e" format="2">
  <advance width="592"/>
  <unicode hex="0065"/>
  <outline>
    <contour>
      <point x="529" y="73" type="curve"/>
      <point x="422" y="162" type="line"/>
      <point x="399" y="134"/>
      <point x="363" y="119"/>
      <point x="320" y="119" type="curve"/>
      <point x="261" y="119"/>
      <point x="214" y="158"/>
      <point x="199" y="216" type="curve"/>
      <point x="554" y="216" type="line"/>
      <point x="554" y="251" type="line"/>
      <point x="554" y="412"/>
      <point x="449" y="525"/>
      <point x="300" y="525" type="curve"/>
      <point x="152" y="525"/>
      <point x="40" y="409"/>
      <point x="40" y="257" type="curve" smooth="yes"/>
      <point x="40" y="107"/>
      <point x="160" y="-10"/>
      <point x="312" y="-10" type="curve"/>
      <point x="399" y="-10"/>
      <point x="462" y="14"/>
    </contour>
    <contour>
      <point x="299" y="399" type="curve"/>
      <point x="351" y="399"/>
      <point x="391" y="364"/>
      <point x="404" y="308" type="curve"/>
      <point x="199" y="308" type="line"/>
      <point x="212" y="365"/>
      <point x="248" y="399"/>
    </contour>
  </outline>
</glyph>
<glyph name="j" format="2">
  <advance width="288"/>
  <unicode hex="006A"/>
  <outline>
    <contour>
      <point x="144" y="596" type="curve" smooth="yes"/>
      <point x="196" y="596"/>
      <point x="236" y="636"/>
      <point x="236" y="686" type="curve" smooth="yes"/>
      <point x="236" y="736"/>
      <point x="194" y="777"/>
      <point x="144" y="777" type="curve" smooth="yes"/>
      <point x="94" y="777"/>
      <point x="53" y="736"/>
      <point x="53" y="686" type="curve" smooth="yes"/>
      <point x="53" y="636"/>
      <point x="93" y="596"/>
    </contour>
    <contour>
      <point x="46" y="-223" type="curve"/>
      <point x="160" y="-223"/>
      <point x="225" y="-162"/>
      <point x="225" y="-57" type="curve" smooth="yes"/>
      <point x="225" y="516" type="line"/>
      <point x="63" y="516" type="line"/>
      <point x="63" y="-50" type="line" smooth="yes"/>
      <point x="63" y="-80"/>
      <point x="47" y="-94"/>
      <point x="11" y="-94" type="curve"/>
      <point x="-7" y="-94"/>
      <point x="-20" y="-93"/>
      <point x="-34" y="-90" type="curve"/>
      <point x="-34" y="-213" type="line"/>
      <point x="-17" y="-219"/>
      <point x="18" y="-223"/>
    </contour>
  </outline>
</glyph>
<glyph name="k" format="2">
  <advance width="604"/>
  <unicode hex="006B"/>
  <anchor x="311" y="0" name="bottom"/>
  <outline>
    <contour>
      <point x="63" y="0" type="line"/>
      <point x="225" y="0" type="line"/>
      <point x="225" y="228" type="line"/>
      <point x="397" y="0" type="line"/>
      <point x="599" y="0" type="line"/>
      <point x="374" y="285" type="line"/>
      <point x="584" y="516" type="line"/>
      <point x="405" y="516" type="line"/>
      <point x="225" y="311" type="line"/>
      <point x="225" y="740" type="line"/>
      <point x="63" y="715" type="line"/>
    </contour>
  </outline>
</glyph>
<glyph name="o" format="2">
  <advance width="619"/>
  <unicode hex="006F"/>
  <anchor x="309" y="516" name="top"/>
  <outline>
    <contour>
      <point x="40" y="257" type="curve" smooth="yes"/>
      <point x="40" y="106"/>
      <point x="156" y="-10"/>
      <point x="309" y="-10" type="curve" smooth="yes"/>
      <point x="462" y="-10"/>
      <point x="579" y="105"/>
      <point x="579" y="257" type="curve" smooth="yes"/>
      <point x="579" y="409"/>
      <point x="463" y="524"/>
      <point x="309" y="524" type="curve" smooth="yes"/>
      <point x="156" y="524"/>
      <point x="40" y="409"/>
    </contour>
    <contour>
      <point x="309" y="127" type="curve" smooth="yes"/>
      <point x="244" y="127"/>
      <point x="198" y="181"/>
      <point x="198" y="257" type="curve" smooth="yes"/>
      <point x="198" y="334"/>
      <point x="244" y="389"/>
      <point x="309" y="389" type="curve" smooth="yes"/>
      <point x="374" y="389"/>
      <point x="421" y="334"/>
      <point x="421" y="257" type="curve" smooth="yes"/>
      <point x="421" y="181"/>
      <point x="375" y="127"/>
    </contour>
  </outline>
</glyph>
<glyph name="t" format="2">
  <advance width="458"/>
  <unicode hex="0074"/>
  <anchor x="297" y="0" name="bottom"/>
  <outline>
    <contour>
      <point x="131" y="159" type="line"/>
      <point x="131" y="49"/>
      <point x="194" y="-7"/>
      <point x="316" y="-7" type="curve"/>
      <point x="349" y="-7"/>
      <point x="397" y="0"/>
      <point x="427" y="9" type="curve"/>
      <point x="427" y="140" type="line"/>
      <point x="395" y="131"/>
      <point x="380" y="129"/>
      <point x="361" y="129" type="curve"/>
      <point x="311" y="129"/>
      <point x="293" y="145"/>
      <point x="293" y="191" type="curve" smooth="yes"/>
      <point x="293" y="391" type="line"/>
      <point x="431" y="391" type="line"/>
      <point x="431" y="516" type="line"/>
      <point x="293" y="516" type="line"/>
      <point x="293" y="692" type="line"/>
      <point x="131" y="659" type="line"/>
      <point x="131" y="516" type="line"/>
      <point x="31" y="516" type="line"/>
      <point x="31" y="391" type="line"/>
      <point x="131" y="391" type="line"/>
    </contour>
  </outline>
</glyph>
<glyph name="x" format="2">
  <advance width="590"/>
  <unicode hex="0078"/>
  <outline>
    <contour>
      <point x="10" y="0" type="line"/>
      <point x="189" y="0" type="line"/>
      <point x="291" y="147" type="line"/>
      <point x="393" y="0" type="line"/>
      <point x="581" y="0" type="line"/>
      <point x="382" y="264" type="line"/>
      <point x="569" y="516" type="line"/>
      <point x="389" y="516" type="line"/>
      <point x="293" y="378" type="line"/>
      <point x="198" y="516" type="line"/>
      <point x="11" y="516" type="line"/>
      <point x="201" y="260" type="line"/>
    </contour>
  </outline>
</glyph>
<glyph name="z" format="2">
  <advance width="510"/>
  <unicode hex="007A"/>
  <anchor x="251" y="516" name="top"/>
  <outline>
    <contour>
      <point x="36" y="0" type="line"/>
      <point x="474" y="0" type="line"/>
      <point x="474" y="135" type="line"/>
      <point x="234" y="133" type="line"/>
      <point x="466" y="403" type="line"/>
      <point x="466" y="516" type="line"/>
      <point x="38" y="516" type="line"/>
      <point x="38" y="380" type="line"/>
      <point x="267" y="382" type="line"/>
      <point x="36" y="113" type="line"/>
    </contour>
  </outline>
</glyph>
<glyph name="cent" format="2">
  <advance width="540"/>
  <unicode hex="00A2"/>
  <outline>
    <contour>
      <point x="277" y="-110" type="line"/>
      <point x="340" y="-110" type="line"/>
      <point x="340" y="-8" type="line"/>
      <point x="410" y="0"/>
      <point x="475" y="34"/>
      <point x="517" y="86" type="curve"/>
      <point x="421" y="181" type="line"/>
      <point x="400" y="153"/>
      <point x="373" y="137"/>
      <point x="340" y="132" type="curve"/>
      <point x="340" y="384" type="line"/>
      <point x="371" y="378"/>
      <point x="397" y="361"/>
      <point x="423" y="330" type="curve"/>
      <point x="522" y="429" type="line"/>
      <point x="477" y="482"/>
      <point x="412" y="515"/>
      <point x="340" y="522" type="curve"/>
      <point x="340" y="625" type="line"/>
      <point x="277" y="625" type="line"/>
      <point x="277" y="522" type="line"/>
      <point x="141" y="508"/>
      <point x="40" y="398"/>
      <point x="40" y="257" type="curve" smooth="yes"/>
      <point x="40" y="116"/>
      <point x="141" y="6"/>
      <point x="277" y="-8" type="curve"/>
    </contour>
    <contour>
      <point x="201" y="257" type="curve" smooth="yes"/>
      <point x="201" y="316"/>
      <point x="232" y="363"/>
      <point x="277" y="380" type="curve"/>
      <point x="277" y="137" type="line"/>
      <point x="231" y="154"/>
      <point x="201" y="200"/>
    </contour>
  </outline>
</glyph>
<glyph name="sterling" format="2">
  <advance width="659"/>
  <unicode hex="00A3"/>
  <anchor x="110" y="-11" name="top"/>
  <anchor x="324" y="-11" name="top"/>
  <anchor x="251" y="689" name="bottom"/>
  <outline>
    <contour>
      <point x="247" y="25" type="curve" smooth="yes"/>
      <point x="392" y="-18" type="line" smooth="yes"/>
      <point x="509" y="-53"/>
      <point x="590" y="-19"/>
      <point x="649" y="89" type="curve"/>
      <point x="531" y="159" type="line"/>
      <point x="503" y="104"/>
      <point x="467" y="88"/>
      <point x="410" y="105" type="curve" smooth="yes"/>
      <point x="276" y="144" type="line"/>
      <point x="302" y="174"/>
      <point x="310" y="214"/>
      <point x="300" y="263" type="curve" smooth="yes"/>
      <point x="298" y="275" type="line"/>
      <point x="446" y="275" type="line"/>
      <point x="446" y="377" type="line"/>
      <point x="276" y="377" type="line"/>
      <point x="266" y="427" type="line" smooth="yes"/>
      <point x="246" y="521"/>
      <point x="281" y="578"/>
      <point x="362" y="578" type="curve"/>
      <point x="421" y="578"/>
      <point x="457" y="546"/>
      <point x="481" y="481" type="curve"/>
      <point x="619" y="525" type="line"/>
      <point x="580" y="648"/>
      <point x="491" y="710"/>
      <point x="354" y="710" type="curve"/>
      <point x="181" y="710"/>
      <point x="80" y="578"/>
      <point x="118" y="400" type="curve" smooth="yes"/>
      <point x="123" y="377" type="line"/>
      <point x="50" y="377" type="line"/>
      <point x="50" y="275" type="line"/>
      <point x="144" y="275" type="line"/>
      <point x="158" y="208" type="line" smooth="yes"/>
      <point x="162" y="187"/>
      <point x="159" y="171"/>
      <point x="148" y="159" type="curve"/>
      <point x="88" y="148"/>
      <point x="40" y="110"/>
      <point x="3" y="41" type="curve"/>
      <point x="126" y="-35" type="line"/>
      <point x="155" y="24"/>
      <point x="190" y="42"/>
    </contour>
  </outline>
</glyph>
<glyph name="uni00A4" format="2">
  <advance width="706"/>
  <unicode hex="00A4"/>
  <outline>
    <contour>
      <point x="105" y="39" type="line"/>
      <point x="202" y="137" type="line"/>
      <point x="245" y="110"/>
      <point x="297" y="95"/>
      <point x="353" y="95" type="curve" smooth="yes"/>
      <point x="409" y="95"/>
      <point x="460" y="110"/>
      <point x="503" y="137" type="curve"/>
      <point x="601" y="38" type="line"/>
      <point x="678" y="115" type="line"/>
      <point x="582" y="211" type="line"/>
      <point x="613" y="254"/>
      <point x="630" y="307"/>
      <point x="630" y="364" type="curve" smooth="yes"/>
      <point x="630" y="422"/>
      <point x="612" y="476"/>
      <point x="581" y="519" type="curve"/>
      <point x="677" y="616" type="line"/>
      <point x="602" y="691" type="line"/>
      <point x="503" y="592" type="line"/>
      <point x="460" y="619"/>
      <point x="409" y="634"/>
      <point x="353" y="634" type="curve" smooth="yes"/>
      <point x="298" y="634"/>
      <point x="247" y="619"/>
      <point x="204" y="593" type="curve"/>
      <point x="106" y="692" type="line"/>
      <point x="29" y="615" type="line"/>
      <point x="124" y="518" type="line"/>
      <point x="94" y="475"/>
      <point x="76" y="422"/>
      <point x="76" y="364" type="curve" smooth="yes"/>
      <point x="76" y="306"/>
      <point x="94" y="253"/>
      <point x="125" y="210" type="curve"/>
      <point x="30" y="114" type="line"/>
    </contour>
    <contour>
      <point x="353" y="230" type="curve" smooth="yes"/>
      <point x="280" y="230"/>
      <point x="224" y="289"/>
      <point x="224" y="364" type="curve" smooth="yes"/>
      <point x="224" y="440"/>
      <point x="281" y="499"/>
      <point x="353" y="499" type="curve" smooth="yes"/>
      <point x="425" y="499"/>
      <point x="482" y="440"/>
      <point x="482" y="364" type="curve" smooth="yes"/>
      <point x="482" y="289"/>
      <point x="426" y="230"/>
    </contour>
  </outline>
</glyph>
<glyph name="yen" format="2">
  <advance width="749"/>
  <unicode hex="00A5"/>
  <outline>
    <contour>
      <point x="125" y="211" type="line"/>
      <point x="125" y="130" type="line"/>
      <point x="283" y="130" type="line"/>
      <point x="283" y="0" type="line"/>
      <point x="455" y="0" type="line"/>
      <point x="455" y="130" type="line"/>
      <point x="615" y="130" type="line"/>
      <point x="615" y="211" type="line"/>
      <point x="455" y="211" type="line"/>
      <point x="455" y="264" type="line"/>
      <point x="615" y="264" type="line"/>
      <point x="615" y="345" type="line"/>
      <point x="507" y="345" type="line"/>
      <point x="740" y="700" type="line"/>
      <point x="553" y="700" type="line"/>
      <point x="374" y="413" type="line"/>
      <point x="197" y="700" type="line"/>
      <point x="-1" y="700" type="line"/>
      <point x="231" y="345" type="line"/>
      <point x="125" y="345" type="line"/>
      <point x="125" y="264" type="line"/>
      <point x="283" y="264" type="line"/>
      <point x="283" y="211" type="line"/>
    </contour>
  </outline>
</glyph>
<glyph name="uni00A6" format="2">
  <advance width="364"/>
  <unicode hex="00A6"/>
  <guideline x="172" y="243" angle="90.0" identifier="XTyy9EqEPV"/>
  <guideline x="172" y="243" angle="0" identifier="LLOqWJEsWZ"/>
  <outline>
    <contour>
      <point x="258" y="283" type="line"/>
      <point x="258" y="700" type="line"/>
      <point x="107" y="700" type="line"/>
      <point x="107" y="283" type="line"/>
    </contour>
    <contour>
      <point x="107" y="-214" type="line"/>
      <point x="258" y="-214" type="line"/>
      <point x="258" y="203" type="line"/>
      <point x="107" y="203" type="line"/>
    </contour>
  </outline>
</glyph>
<glyph name="ordfeminine" format="2">
  <advance width="450"/>
  <unicode hex="00AA"/>
  <outline>
    <contour>
      <point x="172" y="295" type="curve" smooth="yes"/>
      <point x="213" y="295"/>
      <point x="245" y="306"/>
      <point x="280" y="332" type="curve"/>
      <point x="280" y="302" type="line"/>
      <point x="405" y="302" type="line"/>
      <point x="405" y="556" type="line"/>
      <point x="405" y="652"/>
      <point x="341" y="708"/>
      <point x="229" y="708" type="curve"/>
      <point x="170" y="708"/>
      <point x="109" y="694"/>
      <point x="41" y="664" type="curve"/>
      <point x="86" y="571" type="line"/>
      <point x="140" y="593"/>
      <point x="176" y="602"/>
      <point x="206" y="602" type="curve" smooth="yes"/>
      <point x="255" y="602"/>
      <point x="280" y="583"/>
      <point x="280" y="545" type="curve"/>
      <point x="280" y="526" type="line"/>
      <point x="250" y="534"/>
      <point x="221" y="538"/>
      <point x="192" y="538" type="curve"/>
      <point x="87" y="538"/>
      <point x="27" y="495"/>
      <point x="27" y="419" type="curve" smooth="yes"/>
      <point x="27" y="346"/>
      <point x="87" y="295"/>
    </contour>
    <contour>
      <point x="148" y="421" type="curve" smooth="yes"/>
      <point x="148" y="444"/>
      <point x="170" y="457"/>
      <point x="211" y="457" type="curve"/>
      <point x="235" y="457"/>
      <point x="258" y="455"/>
      <point x="280" y="450" type="curve"/>
      <point x="280" y="400" type="line"/>
      <point x="260" y="390"/>
      <point x="236" y="384"/>
      <point x="207" y="384" type="curve"/>
      <point x="170" y="384"/>
      <point x="148" y="398"/>
    </contour>
  </outline>
</glyph>
<glyph name="uni00AC" format="2">
  <advance width="583"/>
  <unicode hex="00AC"/>
  <outline>
    <contour>
      <point x="48" y="354" type="line"/>
      <point x="48" y="219" type="line"/>
      <point x="373" y="219" type="line"/>
      <point x="373" y="0" type="line"/>
      <point x="535" y="0" type="line"/>
      <point x="535" y="354" type="line"/>
    </contour>
  </outline>
</glyph>
<glyph name="degree" format="2">
  <advance width="391"/>
  <unicode hex="00B0"/>
  <outline>
    <contour>
      <point x="196" y="416" type="curve" smooth="yes"/>
      <point x="279" y="416"/>
      <point x="345" y="483"/>
      <point x="345" y="565" type="curve" smooth="yes"/>
      <point x="345" y="643"/>
      <point x="281" y="710"/>
      <point x="196" y="710" type="curve" smooth="yes"/>
      <point x="110" y="710"/>
      <point x="46" y="643"/>
      <point x="46" y="565" type="curve" smooth="yes"/>
      <point x="46" y="483"/>
      <point x="111" y="416"/>
    </contour>
    <contour>
      <point x="196" y="496" type="curve" smooth="yes"/>
      <point x="159" y="496"/>
      <point x="129" y="528"/>
      <point x="129" y="565" type="curve"/>
      <point x="129" y="600"/>
      <point x="159" y="629"/>
      <point x="196" y="629" type="curve" smooth="yes"/>
      <point x="233" y="629"/>
      <point x="262" y="600"/>
      <point x="262" y="565" type="curve" smooth="yes"/>
      <point x="262" y="528"/>
      <point x="234" y="496"/>
    </contour>
  </outline>
</glyph>
<glyph name="plusminus" format="2">
  <advance width="562"/>
  <unicode hex="00B1"/>
  <outline>
    <contour>
      <point x="341" y="209" type="line"/>
      <point x="341" y="359" type="line"/>
      <point x="506" y="359" type="line"/>
      <point x="506" y="482" type="line"/>
      <point x="341" y="482" type="line"/>
      <point x="341" y="629" type="line"/>
      <point x="222" y="629" type="line"/>
      <point x="222" y="482" type="line"/>
      <point x="56" y="482" type="line"/>
      <point x="56" y="359" type="line"/>
      <point x="222" y="359" type="line"/>
      <point x="222" y="209" type="line"/>
    </contour>
    <contour>
      <point x="506" y="123" type="line"/>
      <point x="56" y="123" type="line"/>
      <point x="56" y="-1" type="line"/>
      <point x="506" y="-1" type="line"/>
    </contour>
  </outline>
</glyph>
<glyph name="acute" format="2">
  <advance width="520"/>
  <unicode hex="00B4"/>
  <anchor x="229" y="516" name="_top"/>
  <outline>
    <contour>
      <point x="277" y="747" type="line"/>
      <point x="139" y="601" type="line"/>
      <point x="278" y="601" type="line"/>
      <point x="470" y="747" type="line"/>
    </contour>
  </outline>
</glyph>
<glyph name="uni00B5" format="2">
  <advance width="631"/>
  <unicode hex="00B5"/>
  <outline>
    <contour>
      <point x="218" y="529" type="line"/>
      <point x="56" y="529" type="line"/>
      <point x="56" y="-211" type="line"/>
      <point x="218" y="-211" type="line"/>
      <point x="218" y="-5" type="line"/>
      <point x="234" y="-8"/>
      <point x="250" y="-10"/>
      <point x="267" y="-10" type="curve"/>
      <point x="321" y="-10"/>
      <point x="370" y="6"/>
      <point x="409" y="36" type="curve"/>
      <point x="409" y="0" type="line"/>
      <point x="571" y="0" type="line"/>
      <point x="571" y="529" type="line"/>
      <point x="409" y="529" type="line"/>
      <point x="409" y="171" type="line"/>
      <point x="387" y="144"/>
      <point x="355" y="129"/>
      <point x="314" y="129" type="curve" smooth="yes"/>
      <point x="256" y="129"/>
      <point x="218" y="167"/>
      <point x="218" y="225" type="curve"/>
    </contour>
  </outline>
</glyph>
<glyph name="AE" format="2">
  <advance width="986"/>
  <unicode hex="00C6"/>
  <outline>
    <contour>
      <point x="2" y="0" type="line"/>
      <point x="181" y="0" type="line"/>
      <point x="240" y="167" type="line"/>
      <point x="496" y="167" type="line"/>
      <point x="554" y="0" type="line"/>
      <point x="929" y="0" type="line"/>
      <point x="929" y="149" type="line"/>
      <point x="680" y="149" type="line"/>
      <point x="633" y="281" type="line"/>
      <point x="812" y="281" type="line"/>
      <point x="812" y="425" type="line"/>
      <point x="581" y="425" type="line"/>
      <point x="536" y="551" type="line"/>
      <point x="929" y="551" type="line"/>
      <point x="929" y="700" type="line"/>
      <point x="275" y="700" type="line"/>
    </contour>
    <contour>
      <point x="287" y="300" type="line"/>
      <point x="369" y="532" type="line"/>
      <point x="450" y="300" type="line"/>
    </contour>
  </outline>
</glyph>
<glyph name="Ccedilla" format="2">
  <advance width="720"/>
  <unicode hex="00C7"/>
  <outline>
    <contour>
      <point x="420" y="144" type="curve"/>
      <point x="308" y="144"/>
      <point x="223" y="232"/>
      <point x="223" y="350" type="curve" smooth="yes"/>
      <point x="223" y="469"/>
      <point x="305" y="558"/>
      <point x="414" y="558" type="curve" smooth="yes"/>
      <point x="480" y="558"/>
      <point x="536" y="527"/>
      <point x="582" y="465" type="curve"/>
      <point x="698" y="575" type="line"/>
      <point x="637" y="658"/>
      <point x="526" y="711"/>
      <point x="414" y="711" type="curve" smooth="yes"/>
      <point x="206" y="711"/>
      <point x="45" y="554"/>
      <point x="45" y="350" type="curve" smooth="yes"/>
      <point x="45" y="163"/>
      <point x="180" y="16"/>
      <point x="364" y="-7" type="curve"/>
      <point x="339" y="-111" type="line"/>
      <point x="384" y="-111" type="line" smooth="yes"/>
      <point x="419" y="-111"/>
      <point x="440" y="-124"/>
      <point x="440" y="-146" type="curve"/>
      <point x="440" y="-170"/>
      <point x="421" y="-183"/>
      <point x="386" y="-183" type="curve"/>
      <point x="360" y="-183"/>
      <point x="332" y="-173"/>
      <point x="309" y="-155" type="curve"/>
      <point x="260" y="-212" type="line"/>
      <point x="292" y="-240"/>
      <point x="336" y="-254"/>
      <point x="395" y="-254" type="curve"/>
      <point x="470" y="-254"/>
      <point x="527" y="-206"/>
      <point x="527" y="-144" type="curve"/>
      <point x="527" y="-95"/>
      <point x="488" y="-63"/>
      <point x="425" y="-58" type="curve"/>
      <point x="437" y="-9" type="line"/>
      <point x="537" y="-2"/>
      <point x="635" y="49"/>
      <point x="693" y="124" type="curve"/>
      <point x="580" y="231" type="line"/>
      <point x="536" y="173"/>
      <point x="483" y="144"/>
    </contour>
  </outline>
</glyph>
<glyph name="Eth" format="2">
  <advance width="785"/>
  <unicode hex="00D0"/>
  <outline>
    <contour>
      <point x="103" y="0" type="line"/>
      <point x="388" y="0" type="line" smooth="yes"/>
      <point x="584" y="0"/>
      <point x="740" y="154"/>
      <point x="740" y="348" type="curve" smooth="yes"/>
      <point x="740" y="545"/>
      <point x="584" y="700"/>
      <point x="388" y="700" type="curve" smooth="yes"/>
      <point x="103" y="700" type="line"/>
      <point x="103" y="418" type="line"/>
      <point x="23" y="418" type="line"/>
      <point x="23" y="283" type="line"/>
      <point x="103" y="283" type="line"/>
    </contour>
    <contour>
      <point x="388" y="553" type="line"/>
      <point x="485" y="553"/>
      <point x="562" y="462"/>
      <point x="562" y="348" type="curve" smooth="yes"/>
      <point x="562" y="235"/>
      <point x="485" y="147"/>
      <point x="388" y="147" type="curve"/>
      <point x="275" y="147" type="line"/>
      <point x="275" y="283" type="line"/>
      <point x="416" y="283" type="line"/>
      <point x="416" y="418" type="line"/>
      <point x="275" y="418" type="line"/>
      <point x="275" y="553" type="line"/>
    </contour>
  </outline>
</glyph>
<glyph name="Oslash" format="2">
  <advance width="813"/>
  <unicode hex="00D8"/>
  <outline>
    <contour>
      <point x="177" y="-5" type="line"/>
      <point x="216" y="42" type="line"/>
      <point x="271" y="8"/>
      <point x="337" y="-11"/>
      <point x="407" y="-11" type="curve"/>
      <point x="610" y="-11"/>
      <point x="768" y="148"/>
      <point x="768" y="350" type="curve"/>
      <point x="768" y="443"/>
      <point x="735" y="527"/>
      <point x="679" y="590" type="curve"/>
      <point x="776" y="705" type="line"/>
      <point x="635" y="705" type="line"/>
      <point x="596" y="659" type="line"/>
      <point x="542" y="692"/>
      <point x="477" y="711"/>
      <point x="407" y="711" type="curve"/>
      <point x="204" y="711"/>
      <point x="45" y="552"/>
      <point x="45" y="350" type="curve"/>
      <point x="45" y="257"/>
      <point x="78" y="174"/>
      <point x="134" y="110" type="curve"/>
      <point x="37" y="-5" type="line"/>
    </contour>
    <contour>
      <point x="222" y="350" type="curve"/>
      <point x="222" y="469"/>
      <point x="301" y="558"/>
      <point x="406" y="558" type="curve"/>
      <point x="438" y="558"/>
      <point x="467" y="550"/>
      <point x="492" y="535" type="curve"/>
      <point x="246" y="243" type="line"/>
      <point x="231" y="274"/>
      <point x="222" y="310"/>
    </contour>
    <contour>
      <point x="590" y="350" type="curve"/>
      <point x="590" y="231"/>
      <point x="511" y="142"/>
      <point x="406" y="142" type="curve"/>
      <point x="375" y="142"/>
      <point x="345" y="150"/>
      <point x="320" y="164" type="curve"/>
      <point x="566" y="456" type="line"/>
      <point x="581" y="425"/>
      <point x="590" y="389"/>
    </contour>
  </outline>
</glyph>
<glyph name="ccedilla" format="2">
  <advance width="539"/>
  <unicode hex="00E7"/>
  <outline>
    <contour>
      <point x="317" y="130" type="curve" smooth="yes"/>
      <point x="250" y="130"/>
      <point x="201" y="184"/>
      <point x="201" y="257" type="curve" smooth="yes"/>
      <point x="201" y="331"/>
      <point x="249" y="386"/>
      <point x="313" y="386" type="curve" smooth="yes"/>
      <point x="357" y="386"/>
      <point x="390" y="369"/>
      <point x="423" y="330" type="curve"/>
      <point x="522" y="429" type="line"/>
      <point x="470" y="490"/>
      <point x="392" y="524"/>
      <point x="307" y="524" type="curve"/>
      <point x="156" y="524"/>
      <point x="40" y="408"/>
      <point x="40" y="257" type="curve" smooth="yes"/>
      <point x="40" y="120"/>
      <point x="135" y="12"/>
      <point x="265" y="-7" type="curve"/>
      <point x="240" y="-111" type="line"/>
      <point x="285" y="-111" type="line" smooth="yes"/>
      <point x="320" y="-111"/>
      <point x="341" y="-124"/>
      <point x="341" y="-146" type="curve"/>
      <point x="341" y="-170"/>
      <point x="322" y="-183"/>
      <point x="287" y="-183" type="curve"/>
      <point x="261" y="-183"/>
      <point x="233" y="-173"/>
      <point x="210" y="-155" type="curve"/>
      <point x="161" y="-212" type="line"/>
      <point x="193" y="-240"/>
      <point x="237" y="-254"/>
      <point x="296" y="-254" type="curve"/>
      <point x="371" y="-254"/>
      <point x="428" y="-206"/>
      <point x="428" y="-144" type="curve"/>
      <point x="428" y="-95"/>
      <point x="389" y="-63"/>
      <point x="326" y="-58" type="curve"/>
      <point x="338" y="-8" type="line"/>
      <point x="409" y="-1"/>
      <point x="474" y="34"/>
      <point x="517" y="86" type="curve"/>
      <point x="421" y="181" type="line"/>
      <point x="395" y="147"/>
      <point x="360" y="130"/>
    </contour>
  </outline>
</glyph>
<glyph name="eth" format="2">
  <advance width="596"/>
  <unicode hex="00F0"/>
  <outline>
    <contour>
      <point x="237" y="508" type="line"/>
      <point x="316" y="562" type="line"/>
      <point x="362" y="513"/>
      <point x="392" y="456"/>
      <point x="401" y="400" type="curve"/>
      <point x="376" y="438"/>
      <point x="319" y="463"/>
      <point x="256" y="463" type="curve" smooth="yes"/>
      <point x="137" y="463"/>
      <point x="40" y="362"/>
      <point x="40" y="236" type="curve" smooth="yes"/>
      <point x="40" y="98"/>
      <point x="148" y="-9"/>
      <point x="288" y="-9" type="curve" smooth="yes"/>
      <point x="453" y="-9"/>
      <point x="555" y="117"/>
      <point x="555" y="320" type="curve"/>
      <point x="555" y="440"/>
      <point x="511" y="551"/>
      <point x="430" y="640" type="curve"/>
      <point x="500" y="687" type="line"/>
      <point x="447" y="763" type="line"/>
      <point x="361" y="704" type="line"/>
      <point x="329" y="729"/>
      <point x="293" y="752"/>
      <point x="254" y="771" type="curve"/>
      <point x="172" y="665" type="line"/>
      <point x="197" y="653"/>
      <point x="221" y="639"/>
      <point x="243" y="624" type="curve"/>
      <point x="184" y="584" type="line"/>
    </contour>
    <contour>
      <point x="296" y="127" type="curve" smooth="yes"/>
      <point x="235" y="127"/>
      <point x="188" y="176"/>
      <point x="188" y="236" type="curve" smooth="yes"/>
      <point x="188" y="295"/>
      <point x="235" y="343"/>
      <point x="293" y="343" type="curve" smooth="yes"/>
      <point x="349" y="343"/>
      <point x="395" y="294"/>
      <point x="395" y="236" type="curve" smooth="yes"/>
      <point x="395" y="176"/>
      <point x="349" y="127"/>
    </contour>
  </outline>
</glyph>
<glyph name="oslash" format="2">
  <advance width="619"/>
  <unicode hex="00F8"/>
  <outline>
    <contour>
      <point x="38" y="-5" type="line"/>
      <point x="139" y="-5" type="line"/>
      <point x="167" y="28" type="line"/>
      <point x="208" y="4"/>
      <point x="256" y="-10"/>
      <point x="309" y="-10" type="curve" smooth="yes"/>
      <point x="462" y="-10"/>
      <point x="579" y="105"/>
      <point x="579" y="257" type="curve" smooth="yes"/>
      <point x="579" y="328"/>
      <point x="554" y="390"/>
      <point x="512" y="437" type="curve"/>
      <point x="582" y="521" type="line"/>
      <point x="479" y="521" type="line"/>
      <point x="450" y="487" type="line"/>
      <point x="410" y="511"/>
      <point x="362" y="524"/>
      <point x="309" y="524" type="curve" smooth="yes"/>
      <point x="156" y="524"/>
      <point x="40" y="409"/>
      <point x="40" y="257" type="curve" smooth="yes"/>
      <point x="40" y="187"/>
      <point x="65" y="124"/>
      <point x="107" y="77" type="curve"/>
    </contour>
    <contour>
      <point x="198" y="257" type="curve" smooth="yes"/>
      <point x="198" y="334"/>
      <point x="244" y="389"/>
      <point x="309" y="389" type="curve" smooth="yes"/>
      <point x="327" y="389"/>
      <point x="344" y="385"/>
      <point x="358" y="377" type="curve"/>
      <point x="209" y="198" type="line"/>
      <point x="202" y="216"/>
      <point x="198" y="235"/>
    </contour>
    <contour>
      <point x="309" y="127" type="curve" smooth="yes"/>
      <point x="291" y="127"/>
      <point x="275" y="131"/>
      <point x="260" y="139" type="curve"/>
      <point x="410" y="317" type="line"/>
      <point x="417" y="299"/>
      <point x="421" y="279"/>
      <point x="421" y="257" type="curve" smooth="yes"/>
      <point x="421" y="181"/>
      <point x="375" y="127"/>
    </contour>
  </outline>
</glyph>
<glyph name="Aogonek" format="2">
  <advance width="742"/>
  <unicode hex="0104"/>
  <outline>
    <contour>
      <point x="2" y="0" type="line"/>
      <point x="181" y="0" type="line"/>
      <point x="240" y="167" type="line"/>
      <point x="496" y="167" type="line"/>
      <point x="554" y="0" type="line"/>
      <point x="656" y="0" type="line"/>
      <point x="595" y="-41"/>
      <point x="568" y="-82"/>
      <point x="568" y="-132" type="curve"/>
      <point x="568" y="-191"/>
      <point x="611" y="-231"/>
      <point x="676" y="-231" type="curve"/>
      <point x="712" y="-231"/>
      <point x="747" y="-222"/>
      <point x="769" y="-208" type="curve"/>
      <point x="749" y="-138" type="line"/>
      <point x="739" y="-145"/>
      <point x="722" y="-149"/>
      <point x="704" y="-149" type="curve"/>
      <point x="674" y="-149"/>
      <point x="655" y="-132"/>
      <point x="655" y="-103" type="curve"/>
      <point x="655" y="-67"/>
      <point x="682" y="-35"/>
      <point x="740" y="0" type="curve"/>
      <point x="471" y="700" type="line"/>
      <point x="275" y="700" type="line"/>
    </contour>
    <contour>
      <point x="287" y="300" type="line"/>
      <point x="369" y="532" type="line"/>
      <point x="450" y="300" type="line"/>
    </contour>
  </outline>
</glyph>
<glyph name="eogonek" format="2">
  <advance width="592"/>
  <unicode hex="0119"/>
  <outline>
    <contour>
      <point x="529" y="73" type="curve"/>
      <point x="422" y="162" type="line"/>
      <point x="399" y="134"/>
      <point x="363" y="119"/>
      <point x="320" y="119" type="curve"/>
      <point x="261" y="119"/>
      <point x="214" y="158"/>
      <point x="199" y="216" type="curve"/>
      <point x="554" y="216" type="line"/>
      <point x="554" y="251" type="line"/>
      <point x="554" y="412"/>
      <point x="449" y="525"/>
      <point x="300" y="525" type="curve"/>
      <point x="152" y="525"/>
      <point x="40" y="409"/>
      <point x="40" y="257" type="curve" smooth="yes"/>
      <point x="40" y="111"/>
      <point x="153" y="-3"/>
      <point x="299" y="-10" type="curve"/>
      <point x="247" y="-47"/>
      <point x="224" y="-86"/>
      <point x="224" y="-132" type="curve"/>
      <point x="224" y="-191"/>
      <point x="267" y="-231"/>
      <point x="332" y="-231" type="curve"/>
      <point x="368" y="-231"/>
      <point x="403" y="-222"/>
      <point x="425" y="-208" type="curve"/>
      <point x="405" y="-138" type="line"/>
      <point x="395" y="-145"/>
      <point x="378" y="-149"/>
      <point x="360" y="-149" type="curve"/>
      <point x="330" y="-149"/>
      <point x="311" y="-132"/>
      <point x="311" y="-103" type="curve"/>
      <point x="311" y="-67"/>
      <point x="337" y="-36"/>
      <point x="394" y="-1" type="curve"/>
      <point x="443" y="11"/>
      <point x="485" y="34"/>
    </contour>
    <contour>
      <point x="299" y="399" type="curve"/>
      <point x="351" y="399"/>
      <point x="391" y="364"/>
      <point x="404" y="308" type="curve"/>
      <point x="199" y="308" type="line"/>
      <point x="212" y="365"/>
      <point x="248" y="399"/>
    </contour>
  </outline>
</glyph>
<glyph name="hcircumflex" format="2">
  <advance width="618"/>
  <unicode hex="0125"/>
  <outline>
    <contour>
      <point x="220" y="782" type="line"/>
      <point x="346" y="782" type="line"/>
      <point x="218" y="933" type="line"/>
      <point x="62" y="933" type="line"/>
      <point x="-66" y="782" type="line"/>
      <point x="57" y="782" type="line"/>
      <point x="138" y="865" type="line"/>
    </contour>
    <contour>
      <point x="63" y="0" type="line"/>
      <point x="225" y="0" type="line"/>
      <point x="225" y="354" type="line"/>
      <point x="247" y="382"/>
      <point x="275" y="397"/>
      <point x="311" y="397" type="curve" smooth="yes"/>
      <point x="365" y="397"/>
      <point x="397" y="357"/>
      <point x="397" y="301" type="curve"/>
      <point x="397" y="0" type="line"/>
      <point x="559" y="0" type="line"/>
      <point x="559" y="348" type="line" smooth="yes"/>
      <point x="559" y="450"/>
      <point x="489" y="524"/>
      <point x="388" y="524" type="curve"/>
      <point x="320" y="524"/>
      <point x="264" y="491"/>
      <point x="225" y="433" type="curve"/>
      <point x="225" y="710" type="line"/>
      <point x="63" y="710" type="line"/>
    </contour>
  </outline>
</glyph>
<glyph name="iogonek" format="2">
  <advance width="288"/>
  <unicode hex="012F"/>
  <outline>
    <contour>
      <point x="144" y="596" type="curve" smooth="yes"/>
      <point x="196" y="596"/>
      <point x="236" y="636"/>
      <point x="236" y="686" type="curve" smooth="yes"/>
      <point x="236" y="736"/>
      <point x="194" y="777"/>
      <point x="144" y="777" type="curve" smooth="yes"/>
      <point x="94" y="777"/>
      <point x="53" y="736"/>
      <point x="53" y="686" type="curve" smooth="yes"/>
      <point x="53" y="636"/>
      <point x="93" y="596"/>
    </contour>
    <contour>
      <point x="225" y="0" type="curve"/>
      <point x="225" y="516" type="line"/>
      <point x="63" y="516" type="line"/>
      <point x="63" y="0" type="line"/>
      <point x="141" y="0" type="line"/>
      <point x="80" y="-41"/>
      <point x="53" y="-82"/>
      <point x="53" y="-132" type="curve"/>
      <point x="53" y="-191"/>
      <point x="96" y="-231"/>
      <point x="161" y="-231" type="curve"/>
      <point x="197" y="-231"/>
      <point x="232" y="-222"/>
      <point x="254" y="-208" type="curve"/>
      <point x="234" y="-138" type="line"/>
      <point x="224" y="-145"/>
      <point x="207" y="-149"/>
      <point x="189" y="-149" type="curve"/>
      <point x="159" y="-149"/>
      <point x="140" y="-132"/>
      <point x="140" y="-103" type="curve"/>
      <point x="140" y="-67"/>
      <point x="167" y="-35"/>
    </contour>
  </outline>
</glyph>
<glyph name="lacute" format="2">
  <advance width="288"/>
  <unicode hex="013A"/>
  <outline>
    <contour>
      <point x="192" y="926" type="line"/>
      <point x="54" y="780" type="line"/>
      <point x="193" y="780" type="line"/>
      <point x="385" y="926" type="line"/>
    </contour>
    <contour>
      <point x="63" y="0" type="line"/>
      <point x="225" y="0" type="line"/>
      <point x="225" y="710" type="line"/>
      <point x="63" y="710" type="line"/>
    </contour>
  </outline>
</glyph>
<glyph name="lslash" format="2">
  <advance width="322"/>
  <unicode hex="0142"/>
  <outline>
    <contour>
      <point x="-9" y="311" type="line"/>
      <point x="-9" y="160" type="line"/>
      <point x="81" y="222" type="line"/>
      <point x="81" y="0" type="line"/>
      <point x="243" y="0" type="line"/>
      <point x="243" y="333" type="line"/>
      <point x="331" y="393" type="line"/>
      <point x="331" y="545" type="line"/>
      <point x="243" y="484" type="line"/>
      <point x="243" y="740" type="line"/>
      <point x="81" y="715" type="line"/>
      <point x="81" y="373" type="line"/>
    </contour>
  </outline>
</glyph>
<glyph name="eng" format="2">
  <advance width="618"/>
  <unicode hex="014B"/>
  <outline>
    <contour>
      <point x="63" y="0" type="line"/>
      <point x="225" y="0" type="line"/>
      <point x="225" y="354" type="line"/>
      <point x="248" y="383"/>
      <point x="276" y="397"/>
      <point x="311" y="397" type="curve" smooth="yes"/>
      <point x="363" y="397"/>
      <point x="397" y="359"/>
      <point x="397" y="301" type="curve"/>
      <point x="397" y="-45" type="line"/>
      <point x="397" y="-75"/>
      <point x="381" y="-89"/>
      <point x="347" y="-89" type="curve"/>
      <point x="328" y="-89"/>
      <point x="315" y="-88"/>
      <point x="301" y="-85" type="curve"/>
      <point x="301" y="-212" type="line"/>
      <point x="318" y="-218"/>
      <point x="354" y="-222"/>
      <point x="381" y="-222" type="curve"/>
      <point x="495" y="-222"/>
      <point x="559" y="-162"/>
      <point x="559" y="-55" type="curve"/>
      <point x="559" y="348" type="line" smooth="yes"/>
      <point x="559" y="451"/>
      <point x="488" y="524"/>
      <point x="388" y="524" type="curve"/>
      <point x="321" y="524"/>
      <point x="265" y="492"/>
      <point x="225" y="432" type="curve"/>
      <point x="225" y="516" type="line"/>
      <point x="63" y="516" type="line"/>
    </contour>
  </outline>
</glyph>
<glyph name="Scedilla" format="2">
  <advance width="655"/>
  <unicode hex="015E"/>
  <outline>
    <contour>
      <point x="19" y="96" type="line"/>
      <point x="100" y="36"/>
      <point x="185" y="0"/>
      <point x="278" y="-8" type="curve"/>
      <point x="253" y="-111" type="line"/>
      <point x="298" y="-111" type="line" smooth="yes"/>
      <point x="333" y="-111"/>
      <point x="354" y="-124"/>
      <point x="354" y="-146" type="curve"/>
      <point x="354" y="-170"/>
      <point x="335" y="-183"/>
      <point x="300" y="-183" type="curve"/>
      <point x="274" y="-183"/>
      <point x="246" y="-173"/>
      <point x="223" y="-155" type="curve"/>
      <point x="174" y="-212" type="line"/>
      <point x="206" y="-240"/>
      <point x="250" y="-254"/>
      <point x="309" y="-254" type="curve"/>
      <point x="384" y="-254"/>
      <point x="441" y="-206"/>
      <point x="441" y="-144" type="curve"/>
      <point x="441" y="-95"/>
      <point x="402" y="-63"/>
      <point x="339" y="-58" type="curve"/>
      <point x="351" y="-9" type="line"/>
      <point x="517" y="0"/>
      <point x="621" y="90"/>
      <point x="621" y="219" type="curve"/>
      <point x="621" y="326"/>
      <point x="552" y="394"/>
      <point x="421" y="417" type="curve" smooth="yes"/>
      <point x="281" y="441" type="line" smooth="yes"/>
      <point x="225" y="450"/>
      <point x="202" y="469"/>
      <point x="202" y="504" type="curve"/>
      <point x="202" y="542"/>
      <point x="241" y="570"/>
      <point x="309" y="570" type="curve"/>
      <point x="383" y="570"/>
      <point x="450" y="545"/>
      <point x="518" y="493" type="curve"/>
      <point x="605" y="618" type="line"/>
      <point x="533" y="675"/>
      <point x="426" y="710"/>
      <point x="318" y="710" type="curve" smooth="yes"/>
      <point x="144" y="710"/>
      <point x="40" y="625"/>
      <point x="40" y="489" type="curve"/>
      <point x="40" y="391"/>
      <point x="101" y="323"/>
      <point x="212" y="302" type="curve" smooth="yes"/>
      <point x="361" y="276" type="line" smooth="yes"/>
      <point x="429" y="263"/>
      <point x="453" y="244"/>
      <point x="453" y="203" type="curve"/>
      <point x="453" y="160"/>
      <point x="408" y="130"/>
      <point x="334" y="130" type="curve"/>
      <point x="265" y="130"/>
      <point x="204" y="155"/>
      <point x="107" y="223" type="curve"/>
    </contour>
  </outline>
</glyph>
<glyph name="scedilla" format="2">
  <advance width="511"/>
  <unicode hex="015F"/>
  <outline>
    <contour>
      <point x="21" y="53" type="line"/>
      <point x="72" y="18"/>
      <point x="139" y="-3"/>
      <point x="216" y="-8" type="curve"/>
      <point x="191" y="-111" type="line"/>
      <point x="236" y="-111" type="line" smooth="yes"/>
      <point x="271" y="-111"/>
      <point x="292" y="-124"/>
      <point x="292" y="-146" type="curve"/>
      <point x="292" y="-170"/>
      <point x="273" y="-183"/>
      <point x="238" y="-183" type="curve"/>
      <point x="212" y="-183"/>
      <point x="184" y="-173"/>
      <point x="161" y="-155" type="curve"/>
      <point x="112" y="-212" type="line"/>
      <point x="144" y="-240"/>
      <point x="188" y="-254"/>
      <point x="247" y="-254" type="curve"/>
      <point x="322" y="-254"/>
      <point x="379" y="-206"/>
      <point x="379" y="-144" type="curve"/>
      <point x="379" y="-95"/>
      <point x="340" y="-63"/>
      <point x="277" y="-58" type="curve"/>
      <point x="289" y="-8" type="line"/>
      <point x="400" y="3"/>
      <point x="481" y="74"/>
      <point x="480" y="167" type="curve" smooth="yes"/>
      <point x="481" y="245"/>
      <point x="427" y="297"/>
      <point x="325" y="316" type="curve" smooth="yes"/>
      <point x="228" y="334" type="line" smooth="yes"/>
      <point x="188" y="341"/>
      <point x="175" y="350"/>
      <point x="175" y="371" type="curve"/>
      <point x="175" y="394"/>
      <point x="198" y="407"/>
      <point x="237" y="407" type="curve"/>
      <point x="285" y="407"/>
      <point x="333" y="393"/>
      <point x="385" y="363" type="curve"/>
      <point x="459" y="466" type="line"/>
      <point x="392" y="505"/>
      <point x="321" y="525"/>
      <point x="249" y="525" type="curve"/>
      <point x="114" y="525"/>
      <point x="33" y="462"/>
      <point x="33" y="356" type="curve" smooth="yes"/>
      <point x="33" y="276"/>
      <point x="85" y="225"/>
      <point x="185" y="206" type="curve" smooth="yes"/>
      <point x="284" y="188" type="line" smooth="yes"/>
      <point x="317" y="182"/>
      <point x="332" y="171"/>
      <point x="332" y="151" type="curve" smooth="yes"/>
      <point x="332" y="125"/>
      <point x="304" y="109"/>
      <point x="258" y="109" type="curve" smooth="yes"/>
      <point x="208" y="109"/>
      <point x="166" y="122"/>
      <point x="92" y="161" type="curve"/>
    </contour>
  </outline>
</glyph>
<glyph name="Tcedilla" format="2">
  <advance width="665"/>
  <unicode hex="0162"/>
  <outline>
    <contour>
      <point x="21" y="553" type="line"/>
      <point x="247" y="553" type="line"/>
      <point x="247" y="0" type="line"/>
      <point x="294" y="0" type="line"/>
      <point x="267" y="-111" type="line"/>
      <point x="312" y="-111" type="line" smooth="yes"/>
      <point x="347" y="-111"/>
      <point x="368" y="-124"/>
      <point x="368" y="-146" type="curve"/>
      <point x="368" y="-170"/>
      <point x="349" y="-183"/>
      <point x="314" y="-183" type="curve"/>
      <point x="288" y="-183"/>
      <point x="260" y="-173"/>
      <point x="237" y="-155" type="curve"/>
      <point x="188" y="-212" type="line"/>
      <point x="220" y="-240"/>
      <point x="264" y="-254"/>
      <point x="323" y="-254" type="curve"/>
      <point x="398" y="-254"/>
      <point x="455" y="-206"/>
      <point x="455" y="-144" type="curve"/>
      <point x="455" y="-95"/>
      <point x="416" y="-63"/>
      <point x="353" y="-58" type="curve"/>
      <point x="367" y="0" type="line"/>
      <point x="419" y="0" type="line"/>
      <point x="419" y="553" type="line"/>
      <point x="644" y="553" type="line"/>
      <point x="644" y="700" type="line"/>
      <point x="21" y="700" type="line"/>
    </contour>
  </outline>
</glyph>
<glyph name="tcedilla" format="2">
  <advance width="458"/>
  <unicode hex="0163"/>
  <outline>
    <contour>
      <point x="131" y="159" type="line"/>
      <point x="131" y="68"/>
      <point x="174" y="14"/>
      <point x="258" y="-2" type="curve"/>
      <point x="231" y="-111" type="line"/>
      <point x="276" y="-111" type="line" smooth="yes"/>
      <point x="311" y="-111"/>
      <point x="332" y="-124"/>
      <point x="332" y="-146" type="curve"/>
      <point x="332" y="-170"/>
      <point x="313" y="-183"/>
      <point x="278" y="-183" type="curve"/>
      <point x="252" y="-183"/>
      <point x="224" y="-173"/>
      <point x="201" y="-155" type="curve"/>
      <point x="152" y="-212" type="line"/>
      <point x="184" y="-240"/>
      <point x="228" y="-254"/>
      <point x="287" y="-254" type="curve"/>
      <point x="362" y="-254"/>
      <point x="419" y="-206"/>
      <point x="419" y="-144" type="curve"/>
      <point x="419" y="-95"/>
      <point x="380" y="-63"/>
      <point x="317" y="-58" type="curve"/>
      <point x="329" y="-7" type="line"/>
      <point x="361" y="-5"/>
      <point x="401" y="1"/>
      <point x="427" y="9" type="curve"/>
      <point x="427" y="140" type="line"/>
      <point x="395" y="131"/>
      <point x="380" y="129"/>
      <point x="361" y="129" type="curve"/>
      <point x="311" y="129"/>
      <point x="293" y="145"/>
      <point x="293" y="191" type="curve" smooth="yes"/>
      <point x="293" y="391" type="line"/>
      <point x="431" y="391" type="line"/>
      <point x="431" y="516" type="line"/>
      <point x="293" y="516" type="line"/>
      <point x="293" y="692" type="line"/>
      <point x="131" y="659" type="line"/>
      <point x="131" y="516" type="line"/>
      <point x="31" y="516" type="line"/>
      <point x="31" y="391" type="line"/>
      <point x="131" y="391" type="line"/>
    </contour>
  </outline>
</glyph>
<glyph name="tcaron" format="2">
  <advance width="458"/>
  <unicode hex="0165"/>
  <outline>
    <contour>
      <point x="378" y="801" type="line"/>
      <point x="367" y="602" type="line"/>
      <point x="489" y="602" type="line"/>
      <point x="537" y="829" type="line"/>
    </contour>
    <contour>
      <point x="131" y="159" type="line"/>
      <point x="131" y="49"/>
      <point x="194" y="-7"/>
      <point x="316" y="-7" type="curve"/>
      <point x="349" y="-7"/>
      <point x="397" y="0"/>
      <point x="427" y="9" type="curve"/>
      <point x="427" y="140" type="line"/>
      <point x="395" y="131"/>
      <point x="380" y="129"/>
      <point x="361" y="129" type="curve"/>
      <point x="311" y="129"/>
      <point x="293" y="145"/>
      <point x="293" y="191" type="curve" smooth="yes"/>
      <point x="293" y="391" type="line"/>
      <point x="431" y="391" type="line"/>
      <point x="431" y="516" type="line"/>
      <point x="293" y="516" type="line"/>
      <point x="293" y="692" type="line"/>
      <point x="131" y="659" type="line"/>
      <point x="131" y="516" type="line"/>
      <point x="31" y="516" type="line"/>
      <point x="31" y="391" type="line"/>
      <point x="131" y="391" type="line"/>
    </contour>
  </outline>
</glyph>
<glyph name="Tbar" format="2">
  <advance width="665"/>
  <unicode hex="0166"/>
  <outline>
    <contour>
      <point x="125" y="399" type="line"/>
      <point x="125" y="274" type="line"/>
      <point x="247" y="274" type="line"/>
      <point x="247" y="0" type="line"/>
      <point x="419" y="0" type="line"/>
      <point x="419" y="274" type="line"/>
      <point x="541" y="274" type="line"/>
      <point x="541" y="399" type="line"/>
      <point x="419" y="399" type="line"/>
      <point x="419" y="553" type="line"/>
      <point x="644" y="553" type="line"/>
      <point x="644" y="700" type="line"/>
      <point x="21" y="700" type="line"/>
      <point x="21" y="553" type="line"/>
      <point x="247" y="553" type="line"/>
      <point x="247" y="399" type="line"/>
    </contour>
  </outline>
</glyph>
<glyph name="tbar" format="2">
  <advance width="458"/>
  <unicode hex="0167"/>
  <outline>
    <contour>
      <point x="131" y="159" type="line"/>
      <point x="131" y="49"/>
      <point x="194" y="-7"/>
      <point x="316" y="-7" type="curve"/>
      <point x="349" y="-7"/>
      <point x="397" y="0"/>
      <point x="427" y="9" type="curve"/>
      <point x="427" y="140" type="line"/>
      <point x="395" y="131"/>
      <point x="380" y="129"/>
      <point x="361" y="129" type="curve"/>
      <point x="311" y="129"/>
      <point x="293" y="145"/>
      <point x="293" y="191" type="curve" smooth="yes"/>
      <point x="293" y="217" type="line"/>
      <point x="431" y="217" type="line"/>
      <point x="431" y="318" type="line"/>
      <point x="293" y="318" type="line"/>
      <point x="293" y="391" type="line"/>
      <point x="431" y="391" type="line"/>
      <point x="431" y="516" type="line"/>
      <point x="293" y="516" type="line"/>
      <point x="293" y="692" type="line"/>
      <point x="131" y="659" type="line"/>
      <point x="131" y="516" type="line"/>
      <point x="31" y="516" type="line"/>
      <point x="31" y="391" type="line"/>
      <point x="131" y="391" type="line"/>
      <point x="131" y="318" type="line"/>
      <point x="31" y="318" type="line"/>
      <point x="31" y="217" type="line"/>
      <point x="131" y="217" type="line"/>
    </contour>
  </outline>
</glyph>
<glyph name="Uogonek" format="2">
  <advance width="749"/>
  <unicode hex="0172"/>
  <outline>
    <contour>
      <point x="685" y="304" type="curve"/>
      <point x="685" y="700" type="line"/>
      <point x="513" y="700" type="line"/>
      <point x="513" y="304" type="line"/>
      <point x="513" y="207"/>
      <point x="459" y="144"/>
      <point x="375" y="144" type="curve" smooth="yes"/>
      <point x="291" y="144"/>
      <point x="236" y="207"/>
      <point x="236" y="304" type="curve"/>
      <point x="236" y="700" type="line"/>
      <point x="64" y="700" type="line"/>
      <point x="64" y="304" type="line"/>
      <point x="64" y="120"/>
      <point x="176" y="0"/>
      <point x="352" y="-9" type="curve"/>
      <point x="300" y="-47"/>
      <point x="277" y="-86"/>
      <point x="277" y="-132" type="curve"/>
      <point x="277" y="-191"/>
      <point x="320" y="-231"/>
      <point x="385" y="-231" type="curve"/>
      <point x="421" y="-231"/>
      <point x="456" y="-222"/>
      <point x="478" y="-208" type="curve"/>
      <point x="458" y="-138" type="line"/>
      <point x="448" y="-145"/>
      <point x="431" y="-149"/>
      <point x="413" y="-149" type="curve"/>
      <point x="383" y="-149"/>
      <point x="364" y="-132"/>
      <point x="364" y="-103" type="curve"/>
      <point x="364" y="-68"/>
      <point x="389" y="-38"/>
      <point x="442" y="-4" type="curve"/>
      <point x="592" y="22"/>
      <point x="685" y="138"/>
    </contour>
  </outline>
</glyph>
<glyph name="dotlessj" format="2">
  <advance width="288"/>
  <unicode hex="0237"/>
  <anchor x="144" y="516" name="top"/>
  <outline>
    <contour>
      <point x="-34" y="-213" type="line"/>
      <point x="-16" y="-219"/>
      <point x="20" y="-223"/>
      <point x="46" y="-223" type="curve"/>
      <point x="159" y="-223"/>
      <point x="225" y="-163"/>
      <point x="225" y="-57" type="curve" smooth="yes"/>
      <point x="225" y="516" type="line"/>
      <point x="63" y="516" type="line"/>
      <point x="63" y="-50" type="line" smooth="yes"/>
      <point x="63" y="-80"/>
      <point x="47" y="-94"/>
      <point x="11" y="-94" type="curve"/>
      <point x="-6" y="-94"/>
      <point x="-19" y="-93"/>
      <point x="-34" y="-90" type="curve"/>
    </contour>
  </outline>
</glyph>
<glyph name="circumflex" format="2">
  <advance width="520"/>
  <unicode hex="02C6"/>
  <anchor x="260" y="516" name="_top"/>
  <outline>
    <contour>
      <point x="341" y="599" type="line"/>
      <point x="467" y="599" type="line"/>
      <point x="339" y="750" type="line"/>
      <point x="183" y="750" type="line"/>
      <point x="55" y="599" type="line"/>
      <point x="178" y="599" type="line"/>
      <point x="259" y="682" type="line"/>
    </contour>
  </outline>
</glyph>
<glyph name="caron" format="2">
  <advance width="520"/>
  <unicode hex="02C7"/>
  <anchor x="260" y="516" name="_top"/>
  <outline>
    <contour>
      <point x="181" y="755" type="line"/>
      <point x="55" y="755" type="line"/>
      <point x="183" y="604" type="line"/>
      <point x="339" y="604" type="line"/>
      <point x="467" y="755" type="line"/>
      <point x="344" y="755" type="line"/>
      <point x="263" y="672" type="line"/>
    </contour>
  </outline>
</glyph>
<glyph name="ring" format="2">
  <advance width="520"/>
  <unicode hex="02DA"/>
  <anchor x="260" y="516" name="_top"/>
  <outline>
    <contour>
      <point x="260" y="587" type="curve" smooth="yes"/>
      <point x="331" y="587"/>
      <point x="387" y="642"/>
      <point x="387" y="712" type="curve" smooth="yes"/>
      <point x="387" y="780"/>
      <point x="330" y="834"/>
      <point x="260" y="834" type="curve" smooth="yes"/>
      <point x="189" y="834"/>
      <point x="133" y="780"/>
      <point x="133" y="712" type="curve" smooth="yes"/>
      <point x="133" y="642"/>
      <point x="189" y="587"/>
    </contour>
    <contour>
      <point x="260" y="651" type="curve" smooth="yes"/>
      <point x="226" y="651"/>
      <point x="200" y="677"/>
      <point x="200" y="712" type="curve"/>
      <point x="200" y="744"/>
      <point x="226" y="770"/>
      <point x="260" y="770" type="curve" smooth="yes"/>
      <point x="293" y="770"/>
      <point x="320" y="744"/>
      <point x="320" y="712" type="curve" smooth="yes"/>
      <point x="320" y="678"/>
      <point x="294" y="651"/>
    </contour>
  </outline>
</glyph>
<glyph name="ogonek" format="2">
  <advance width="520"/>
  <unicode hex="02DB"/>
  <anchor x="330" y="0" name="_bottom"/>
  <outline>
    <contour>
      <point x="330" y="0" type="curve"/>
      <point x="283" y="22" type="line"/>
      <point x="196" y="-26"/>
      <point x="158" y="-73"/>
      <point x="158" y="-132" type="curve"/>
      <point x="158" y="-191"/>
      <point x="201" y="-231"/>
      <point x="266" y="-231" type="curve"/>
      <point x="302" y="-231"/>
      <point x="337" y="-222"/>
      <point x="359" y="-208" type="curve"/>
      <point x="339" y="-138" type="line"/>
      <point x="329" y="-145"/>
      <point x="312" y="-149"/>
      <point x="294" y="-149" type="curve"/>
      <point x="264" y="-149"/>
      <point x="245" y="-132"/>
      <point x="245" y="-103" type="curve"/>
      <point x="245" y="-67"/>
      <point x="272" y="-35"/>
    </contour>
  </outline>
</glyph>
<glyph name="tilde" format="2">
  <advance width="520"/>
  <unicode hex="02DC"/>
  <anchor x="260" y="516" name="_top"/>
  <outline>
    <contour>
      <point x="141" y="590" type="line"/>
      <point x="155" y="641"/>
      <point x="168" y="657"/>
      <point x="190" y="657" type="curve"/>
      <point x="226" y="657"/>
      <point x="284" y="597"/>
      <point x="343" y="597" type="curve" smooth="yes"/>
      <point x="404" y="597"/>
      <point x="444" y="645"/>
      <point x="467" y="739" type="curve"/>
      <point x="377" y="760" type="line"/>
      <point x="363" y="709"/>
      <point x="353" y="693"/>
      <point x="333" y="693" type="curve"/>
      <point x="297" y="693"/>
      <point x="239" y="753"/>
      <point x="180" y="753" type="curve" smooth="yes"/>
      <point x="116" y="753"/>
      <point x="74" y="705"/>
      <point x="51" y="611" type="curve"/>
    </contour>
  </outline>
</glyph>
<glyph name="hungarumlaut" format="2">
  <advance width="558"/>
  <unicode hex="02DD"/>
  <anchor x="253" y="516" name="_top"/>
  <outline>
    <contour>
      <point x="192" y="746" type="line"/>
      <point x="57" y="603" type="line"/>
      <point x="178" y="603" type="line"/>
      <point x="336" y="746" type="line"/>
    </contour>
    <contour>
      <point x="419" y="746" type="line"/>
      <point x="284" y="603" type="line"/>
      <point x="396" y="603" type="line"/>
      <point x="565" y="746" type="line"/>
    </contour>
  </outline>
</glyph>
<glyph name="bullet" format="2">
  <advance width="378"/>
  <unicode hex="2022"/>
  <outline>
    <contour>
      <point x="189" y="202" type="curve" smooth="yes"/>
      <point x="255" y="202"/>
      <point x="307" y="255"/>
      <point x="307" y="323" type="curve" smooth="yes"/>
      <point x="307" y="392"/>
      <point x="255" y="445"/>
      <point x="189" y="445" type="curve" smooth="yes"/>
      <point x="123" y="445"/>
      <point x="71" y="392"/>
      <point x="71" y="323" type="curve" smooth="yes"/>
      <point x="71" y="255"/>
      <point x="123" y="202"/>
    </contour>
  </outline>
</glyph>
<glyph name="uni2082" format="2">
  <advance width="318"/>
  <unicode hex="2082"/>
  <outline>
    <contour>
      <point x="33" y="0" type="line"/>
      <point x="294" y="0" type="line"/>
      <point x="294" y="79" type="line"/>
      <point x="156" y="79" type="line"/>
      <point x="244" y="162" type="line" smooth="yes"/>
      <point x="272" y="188"/>
      <point x="290" y="216"/>
      <point x="290" y="249" type="curve"/>
      <point x="290" y="310"/>
      <point x="240" y="355"/>
      <point x="159" y="355" type="curve" smooth="yes"/>
      <point x="103" y="355"/>
      <point x="55" y="330"/>
      <point x="17" y="293" type="curve"/>
      <point x="69" y="231" type="line"/>
      <point x="107" y="268"/>
      <point x="132" y="274"/>
      <point x="156" y="274" type="curve" smooth="yes"/>
      <point x="181" y="274"/>
      <point x="199" y="259"/>
      <point x="199" y="241" type="curve"/>
      <point x="199" y="231"/>
      <point x="193" y="219"/>
      <point x="180" y="207" type="curve" smooth="yes"/>
      <point x="33" y="68" type="line"/>
    </contour>
  </outline>
</glyph>
<glyph name="minus" format="2">
  <advance width="562"/>
  <unicode hex="2212"/>
  <outline>
    <contour>
      <point x="506" y="421" type="line"/>
      <point x="56" y="421" type="line"/>
      <point x="56" y="297" type="line"/>
      <point x="506" y="297" type="line"/>
    </contour>
  </outline>
</glyph>
<glyph name="notequal" format="2">
  <advance width="557"/>
  <unicode hex="2260"/>
  <outline>
    <contour>
      <point x="58" y="81" type="line"/>
      <point x="178" y="81" type="line"/>
      <point x="242" y="189" type="line"/>
      <point x="506" y="189" type="line"/>
      <point x="506" y="313" type="line"/>
      <point x="316" y="313" type="line"/>
      <point x="362" y="391" type="line"/>
      <point x="506" y="391" type="line"/>
      <point x="506" y="515" type="line"/>
      <point x="436" y="515" type="line"/>
      <point x="499" y="621" type="line"/>
      <point x="381" y="621" type="line"/>
      <point x="318" y="515" type="line"/>
      <point x="56" y="515" type="line"/>
      <point x="56" y="391" type="line"/>
      <point x="243" y="391" type="line"/>
      <point x="197" y="313" type="line"/>
      <point x="56" y="313" type="line"/>
      <point x="56" y="189" type="line"/>
      <point x="123" y="189" type="line"/>
    </contour>
  </outline>
</glyph>
<glyph name="uniFFFD" format="2">
  <advance width="990"/>
  <unicode hex="FFFD"/>
  <outline>
    <contour>
      <point x="495" y="-145" type="line"/>
      <point x="990" y="350" type="line"/>
      <point x="495" y="845" type="line"/>
      <point x="0" y="350" type="line"/>
    </contour>
    <contour>
      <point x="590" y="340" type="curve" smooth="yes"/>
      <point x="571" y="327" type="line" smooth="yes"/>
      <point x="542" y="307"/>
      <point x="532" y="288"/>
      <point x="533" y="251" type="curve"/>
      <point x="432" y="251" type="line"/>
      <point x="428" y="321"/>
      <point x="441" y="352"/>
      <point x="488" y="388" type="curve" smooth="yes"/>
      <point x="528" y="418" type="line" smooth="yes"/>
      <point x="554" y="436"/>
      <point x="566" y="453"/>
      <point x="566" y="469" type="curve"/>
      <point x="566" y="499"/>
      <point x="537" y="520"/>
      <point x="497" y="520" type="curve" smooth="yes"/>
      <point x="453" y="520"/>
      <point x="415" y="496"/>
      <point x="400" y="457" type="curve"/>
      <point x="302" y="494" type="line"/>
      <point x="330" y="571"/>
      <point x="408" y="621"/>
      <point x="501" y="621" type="curve"/>
      <point x="606" y="621"/>
      <point x="684" y="559"/>
      <point x="684" y="477" type="curve" smooth="yes"/>
      <point x="684" y="421"/>
      <point x="661" y="388"/>
    </contour>
    <contour>
      <point x="483" y="219" type="curve" smooth="yes"/>
      <point x="521" y="219"/>
      <point x="552" y="187"/>
      <point x="552" y="149" type="curve" smooth="yes"/>
      <point x="552" y="111"/>
      <point x="521" y="79"/>
      <point x="483" y="79" type="curve" smooth="yes"/>
      <point x="444" y="79"/>
      <point x="413" y="111"/>
      <point x="413" y="149" type="curve" smooth="yes"/>
      <point x="413" y="187"/>
      <point x="444" y="219"/>
    </contour>
  </outline>
</glyph>
<glyph name="caronSlovak" format="2">
  <advance width="274"/>
  <outline>
    <contour>
      <point x="93" y="723" type="line"/>
      <point x="84" y="446" type="line"/>
      <point x="189" y="446" type="line"/>
      <point x="241" y="723" type="line"/>
    </contour>
  </outline>
</glyph>
<glyph name="g.alt" format="2">
  <advance width="638"/>
  <anchor x="301" y="516" name="top"/>
  <outline>
    <contour>
      <point x="56" y="331" type="curve" smooth="yes"/>
      <point x="56" y="255"/>
      <point x="108" y="192"/>
      <point x="187" y="161" type="curve"/>
      <point x="119" y="148"/>
      <point x="77" y="110"/>
      <point x="77" y="59" type="curve"/>
      <point x="77" y="20"/>
      <point x="99" y="-9"/>
      <point x="141" y="-27" type="curve"/>
      <point x="68" y="-38"/>
      <point x="23" y="-67"/>
      <point x="23" y="-106" type="curve"/>
      <point x="23" y="-181"/>
      <point x="118" y="-221"/>
      <point x="293" y="-221" type="curve" smooth="yes"/>
      <point x="495" y="-221"/>
      <point x="621" y="-152"/>
      <point x="621" y="-42" type="curve" smooth="yes"/>
      <point x="621" y="34"/>
      <point x="555" y="81"/>
      <point x="445" y="85" type="curve" smooth="yes"/>
      <point x="258" y="91" type="line" smooth="yes"/>
      <point x="223" y="92"/>
      <point x="207" y="101"/>
      <point x="207" y="120" type="curve" smooth="yes"/>
      <point x="207" y="132"/>
      <point x="215" y="142"/>
      <point x="229" y="149" type="curve"/>
      <point x="251" y="144"/>
      <point x="276" y="141"/>
      <point x="301" y="141" type="curve" smooth="yes"/>
      <point x="443" y="141"/>
      <point x="548" y="221"/>
      <point x="548" y="331" type="curve" smooth="yes"/>
      <point x="548" y="366"/>
      <point x="537" y="398"/>
      <point x="517" y="426" type="curve"/>
      <point x="534" y="436"/>
      <point x="555" y="441"/>
      <point x="577" y="441" type="curve" smooth="yes"/>
      <point x="592" y="441"/>
      <point x="611" y="438"/>
      <point x="628" y="432" type="curve"/>
      <point x="628" y="558" type="line"/>
      <point x="616" y="562"/>
      <point x="609" y="563"/>
      <point x="597" y="563" type="curve" smooth="yes"/>
      <point x="546" y="563"/>
      <point x="510" y="532"/>
      <point x="482" y="464" type="curve"/>
      <point x="437" y="501"/>
      <point x="373" y="524"/>
      <point x="301" y="524" type="curve" smooth="yes"/>
      <point x="163" y="524"/>
      <point x="56" y="439"/>
    </contour>
    <contour>
      <point x="395" y="331" type="curve" smooth="yes"/>
      <point x="395" y="282"/>
      <point x="355" y="247"/>
      <point x="301" y="247" type="curve" smooth="yes"/>
      <point x="247" y="247"/>
      <point x="208" y="282"/>
      <point x="208" y="331" type="curve" smooth="yes"/>
      <point x="208" y="378"/>
      <point x="248" y="413"/>
      <point x="301" y="413" type="curve" smooth="yes"/>
      <point x="355" y="413"/>
      <point x="395" y="378"/>
    </contour>
    <contour>
      <point x="168" y="-74" type="curve"/>
      <point x="168" y="-60"/>
      <point x="176" y="-49"/>
      <point x="191" y="-41" type="curve"/>
      <point x="211" y="-45"/>
      <point x="234" y="-47"/>
      <point x="259" y="-48" type="curve" smooth="yes"/>
      <point x="419" y="-52" type="line" smooth="yes"/>
      <point x="446" y="-53"/>
      <point x="459" y="-61"/>
      <point x="459" y="-76" type="curve" smooth="yes"/>
      <point x="459" y="-105"/>
      <point x="396" y="-123"/>
      <point x="293" y="-123" type="curve" smooth="yes"/>
      <point x="207" y="-123"/>
      <point x="168" y="-108"/>
    </contour>
  </outline>
</glyph>
